<svg version="1.1" id="Layer_1" xmlns="http://www.w3.org/2000/svg" xmlns:xlink="http://www.w3.org/1999/xlink" x="0px" y="0px"
	 width="100%" viewBox="0 0 500 500" enable-background="new 0 0 500 500" xml:space="preserve">
<path fill="#FFFFFF" opacity="1.000000" stroke="none" 
	d="
M443.000000,501.000000 
	C296.833374,501.000000 151.166718,500.983215 5.500176,501.094025 
	C1.750943,501.096863 0.903621,500.249664 0.906115,496.500031 
	C1.014957,332.833466 1.014939,169.166824 0.906175,5.500286 
	C0.903684,1.751439 1.749881,0.903598 5.499837,0.906092 
	C169.166382,1.014958 332.833038,1.014936 496.499603,0.906196 
	C500.248169,0.903706 501.096466,1.749477 501.093964,5.499718 
	C500.985077,169.166275 500.985077,332.832916 501.093781,496.499481 
	C501.096252,500.247742 500.258270,501.150940 496.499146,501.102112 
	C478.835297,500.872589 461.166809,501.000000 443.000000,501.000000 
z"/>
<path fill="#030407" opacity="1.000000" stroke="none" 
	d="
M141.089584,308.524567 
	C130.801056,308.919708 120.858093,308.958191 110.451668,308.917480 
	C108.755890,307.440002 109.025246,305.717926 109.017105,304.082947 
	C108.921211,284.823792 109.244217,265.562103 108.615402,246.305786 
	C108.545731,244.172256 108.322456,241.968872 109.720413,239.579956 
	C119.963799,239.169815 129.878128,239.131149 140.240265,239.129059 
	C142.142700,240.206238 141.974777,241.780746 141.976776,243.259491 
	C142.004730,263.923737 142.012115,284.588013 141.976776,305.252258 
	C141.975067,306.252136 141.942093,307.256866 141.089584,308.524567 
z"/>
<path fill="#030407" opacity="1.000000" stroke="none" 
	d="
M178.089828,308.523926 
	C167.801041,308.919708 157.858093,308.958221 147.451660,308.917480 
	C145.997711,307.760773 146.019562,306.412567 146.019226,305.087250 
	C146.013885,284.034119 145.955093,262.980957 146.047897,241.927872 
	C146.050842,241.259705 146.203445,240.613953 146.747513,239.599548 
	C156.963745,239.169785 166.878036,239.131134 177.240112,239.129028 
	C179.052078,240.155258 179.319901,241.589706 179.272339,243.135910 
	C178.640411,263.678223 179.182007,284.225922 178.983871,304.770172 
	C178.972717,305.927429 179.018387,307.099182 178.089828,308.523926 
z"/>
<path fill="#010203" opacity="1.000000" stroke="none" 
	d="
M305.402588,284.451141 
	C304.649414,284.740906 304.291260,284.759369 303.406891,284.889923 
	C301.907501,289.761414 304.342621,294.001648 304.952759,298.521271 
	C305.389557,301.757080 307.017761,304.791412 306.421600,308.509094 
	C302.819000,308.891479 299.409698,308.941010 295.545837,308.936401 
	C292.398438,305.255920 292.574585,300.756409 291.367584,296.677521 
	C290.574188,293.996429 290.344849,291.146973 288.739868,288.762451 
	C287.640961,295.303589 288.530060,301.808807 287.264618,308.528259 
	C283.619202,308.890808 280.220154,308.941284 276.362061,308.913971 
	C274.974884,307.723999 275.018921,306.375458 275.018066,305.053955 
	C275.004578,284.183716 274.977051,263.313446 275.028473,242.443222 
	C275.030548,241.610641 275.118744,240.790634 275.703522,239.603958 
	C285.703491,239.159988 295.413910,239.115952 305.593170,239.134735 
	C307.640717,240.790359 307.466827,242.839523 307.471588,244.813950 
	C307.498413,255.926514 307.500824,267.039185 307.470886,278.151733 
	C307.465088,280.299561 307.576416,282.510345 305.402588,284.451141 
z"/>
<path fill="#000202" opacity="1.000000" stroke="none" 
	d="
M348.146545,245.637695 
	C346.783600,245.255280 345.757721,245.212433 344.354004,245.249023 
	C342.495667,247.034836 343.026215,249.111710 343.021301,251.040955 
	C342.978027,268.079834 343.006927,285.118805 342.983276,302.157745 
	C342.980530,304.129456 343.251617,306.133240 342.295502,308.451599 
	C338.628693,308.891113 335.240601,308.942505 331.392426,308.938690 
	C329.372833,307.273438 329.519592,305.226105 329.518005,303.234375 
	C329.502686,283.742401 329.503632,264.250458 329.515259,244.758484 
	C329.516235,243.091614 329.475464,241.413055 330.700928,239.527573 
	C340.441223,239.122559 349.854126,239.092758 359.821960,239.069275 
	C361.015808,240.531387 362.297211,241.616638 362.244080,243.479340 
	C361.639618,264.661926 362.258392,285.852264 361.891144,307.037170 
	C361.885559,307.361267 361.753204,307.682739 361.433899,308.423340 
	C357.790222,308.884399 354.388550,308.927002 350.534058,308.901794 
	C348.436005,306.992004 349.036957,304.730560 349.030853,302.637238 
	C348.981506,285.716125 349.016327,268.794769 348.986938,251.873566 
	C348.983490,249.903534 349.322388,247.884048 348.146545,245.637695 
z"/>
<path fill="#03080B" opacity="1.000000" stroke="none" 
	d="
M268.391510,284.465271 
	C262.935028,284.764404 257.865997,284.784363 252.328369,284.916382 
	C250.071884,289.193420 251.375763,293.566498 251.006241,297.828064 
	C250.706421,301.285797 251.550766,304.806274 250.147766,308.555664 
	C246.346786,308.919464 242.852600,308.951935 238.934494,308.937256 
	C236.785629,308.063202 237.041916,306.439758 237.031143,304.996826 
	C236.875717,284.153656 237.009903,263.310303 237.029907,242.466980 
	C237.030869,241.472214 237.092300,240.475494 238.132874,239.382553 
	C248.395615,239.124481 258.212341,239.093536 268.490234,239.130798 
	C270.006989,240.234344 269.977905,241.580276 269.980713,242.900711 
	C270.007111,255.289062 270.008820,267.677429 269.978149,280.065765 
	C269.974487,281.540222 270.089966,283.078827 268.391510,284.465271 
z"/>
<path fill="#04070A" opacity="1.000000" stroke="none" 
	d="
M409.444031,277.530212 
	C415.076019,278.022797 420.523224,278.111969 426.427246,278.266174 
	C427.513092,278.917572 427.897247,279.641083 427.894440,280.498444 
	C427.864502,289.683624 428.459381,298.876160 427.303772,308.448608 
	C422.329102,308.906982 417.633423,308.968384 412.483032,309.130981 
	C411.352417,309.686920 410.623810,310.007324 409.402649,310.113892 
	C408.454773,310.077637 407.935364,309.940277 407.129944,309.452454 
	C403.574738,309.119568 400.329407,309.046814 396.643799,308.933289 
	C393.952911,303.897003 394.966095,298.769135 395.924500,293.303650 
	C396.263092,292.950104 396.640533,292.926697 396.829590,292.929932 
	C399.725800,292.103271 402.497070,292.672974 405.670319,292.714539 
	C406.103699,292.872131 406.595093,292.865784 406.827240,292.946289 
	C409.503784,295.688995 407.005035,300.180511 410.850220,302.649048 
	C411.798676,302.889160 412.439240,302.918457 413.399445,302.907806 
	C416.059784,297.088074 415.196930,291.206696 413.921967,285.109711 
	C408.150513,284.837616 402.732269,284.779297 396.874451,284.711121 
	C394.987915,283.952454 395.049133,282.564270 395.030273,281.254395 
	C394.842987,268.219360 395.292023,255.180008 394.770477,242.146576 
	C394.736816,241.305908 395.077820,240.535080 395.909027,239.492615 
	C406.193085,239.120056 416.119873,239.092026 426.508484,239.136169 
	C429.065979,243.984909 427.643585,248.969101 427.671326,254.275970 
	C424.212738,256.303345 420.665558,255.641327 417.333771,255.314713 
	C413.925781,254.980637 414.711304,251.605026 414.574615,249.310242 
	C414.352112,245.574905 412.725861,244.655899 409.291870,246.599487 
	C408.985779,257.046143 408.748016,267.088043 409.444031,277.530212 
z"/>
<path fill="#020305" opacity="1.000000" stroke="none" 
	d="
M74.749474,239.600494 
	C84.964264,239.171768 94.876450,239.133652 105.236214,239.131165 
	C108.667946,244.263382 107.714828,249.523178 105.947220,255.061493 
	C103.934784,255.607483 102.292068,255.473206 100.656372,255.478027 
	C93.678558,255.498581 93.561516,255.498901 93.043015,248.731171 
	C92.842415,246.112854 91.702911,245.254791 88.875198,245.509857 
	C87.571693,245.874786 87.089081,246.553436 87.097672,247.439667 
	C87.194290,257.404968 86.397346,267.383575 87.808060,277.669556 
	C89.472527,278.064941 90.854897,278.124481 92.756821,278.187836 
	C94.887497,280.147858 96.407745,282.105865 93.258087,284.446503 
	C91.768158,284.761749 90.414124,284.783783 88.557281,284.877014 
	C86.114624,287.660858 87.220177,290.750793 87.026398,293.666351 
	C86.707504,298.464661 87.435532,303.298462 86.364853,308.463806 
	C82.710487,308.891022 79.305923,308.942383 75.445885,308.915253 
	C73.997704,307.760437 74.020157,306.412140 74.019203,305.086823 
	C74.004189,284.199554 73.975082,263.312286 74.030754,242.425049 
	C74.032974,241.591034 74.129333,240.771835 74.749474,239.600494 
z"/>
<path fill="#010203" opacity="1.000000" stroke="none" 
	d="
M371.302124,245.572006 
	C369.302063,245.126053 367.586853,245.064499 365.449158,244.924484 
	C363.662506,243.321152 363.548889,241.658813 364.777649,239.546875 
	C373.757477,239.165421 382.440704,239.118652 391.592773,239.134644 
	C393.390900,240.701370 393.405975,242.375076 392.442566,244.498962 
	C390.550964,244.921036 388.916931,244.986053 386.876526,245.086502 
	C384.231903,246.436920 385.043854,248.653229 385.036499,250.501602 
	C384.968018,267.699646 385.005432,284.898041 384.985962,302.096313 
	C384.983734,304.072083 385.201630,306.068481 384.408569,308.429504 
	C380.760986,308.886261 377.362579,308.931122 373.510864,308.905457 
	C371.445007,306.980347 372.036560,304.723724 372.030518,302.628784 
	C371.981873,285.712006 372.013916,268.795044 371.990143,251.878159 
	C371.987366,249.901352 372.260590,247.892715 371.302124,245.572006 
z"/>
<path fill="#010203" opacity="1.000000" stroke="none" 
	d="
M209.249405,244.451630 
	C207.245056,244.912140 205.533508,244.976852 203.399139,245.114700 
	C201.525589,246.908295 202.023743,248.984879 202.019211,250.924835 
	C201.979340,268.008728 202.008026,285.092743 201.981781,302.176636 
	C201.978745,304.150391 202.280502,306.164032 201.228851,308.463013 
	C197.522751,308.890625 194.112244,308.941223 190.235901,308.915039 
	C188.617020,307.005127 189.026184,304.952332 189.022354,302.986237 
	C188.988937,285.827515 189.019333,268.668640 188.982513,251.509933 
	C188.978287,249.544052 189.406281,247.498077 187.926514,245.391708 
	C185.871719,245.104187 184.230087,245.060333 182.179443,244.962311 
	C180.556702,240.185562 180.932388,239.565353 185.450058,239.531647 
	C192.902435,239.476028 200.355530,239.509995 208.300125,239.520508 
	C210.257568,240.831360 210.035690,242.421127 209.249405,244.451630 
z"/>
<path fill="#000202" opacity="1.000000" stroke="none" 
	d="
M324.300812,308.435547 
	C320.618561,308.889954 317.220276,308.940155 313.362976,308.912842 
	C311.974762,307.723602 312.018951,306.374969 312.018097,305.053528 
	C312.004578,284.183533 311.977020,263.313538 312.028534,242.443542 
	C312.030579,241.610947 312.118927,240.791000 312.704437,239.604675 
	C316.348877,239.161911 319.703552,239.118866 323.509521,239.144882 
	C325.140076,240.417145 324.980011,241.959488 324.980957,243.434860 
	C324.994415,264.153473 325.024170,284.872131 324.971649,305.590729 
	C324.969543,306.423889 324.881348,307.244415 324.300812,308.435547 
z"/>
<path fill="#090A0A" opacity="1.000000" stroke="none" 
	d="
M214.672913,261.333832 
	C219.413483,264.373749 220.407867,268.000519 216.535843,272.580963 
	C214.873398,274.547546 214.696701,277.105896 215.905380,279.621857 
	C216.692108,281.259552 217.404388,282.961945 217.890549,284.707611 
	C218.470184,286.788879 218.184631,288.845703 215.883774,289.707947 
	C213.254181,290.693390 212.183212,288.757660 211.738724,286.729126 
	C210.697800,281.978455 208.476608,277.739777 206.539429,273.346924 
	C203.448227,266.337097 206.426147,262.051575 214.672913,261.333832 
z"/>
<path fill="#090A0A" opacity="1.000000" stroke="none" 
	d="
M235.987457,284.652161 
	C233.536606,288.933289 231.401245,293.009003 230.389481,297.593018 
	C229.899918,299.811035 229.189056,302.648651 226.018936,301.652954 
	C223.198380,300.767120 223.094910,298.017761 224.227036,295.829102 
	C226.913666,290.635132 226.990906,286.054901 223.348969,281.059662 
	C221.155380,278.050964 223.907104,275.572388 226.097794,273.388794 
	C229.217743,273.913574 233.114075,273.433411 235.675354,277.180756 
	C237.621292,279.665985 237.209595,282.058655 235.987457,284.652161 
z"/>
<path fill="#25E8E8" opacity="1.000000" stroke="none" 
	d="
M330.620392,239.088943 
	C330.976135,262.089905 330.923950,285.027405 330.902039,308.424194 
	C328.440796,309.479706 328.205383,307.988647 328.207397,306.074615 
	C328.229858,284.801880 328.216736,263.529144 328.231262,242.256424 
	C328.232239,240.818939 327.885193,239.077209 330.620392,239.088943 
z"/>
<path fill="#C500C5" opacity="1.000000" stroke="none" 
	d="
M361.617920,308.878418 
	C361.195984,287.219971 361.209015,265.598145 361.184448,243.976303 
	C361.182770,242.508789 360.898254,241.041611 360.561096,239.324921 
	C361.082642,239.106659 361.788361,239.137741 362.776062,239.263702 
	C364.343872,240.844513 364.010315,242.543411 363.523621,244.629669 
	C363.330750,264.710999 363.344849,284.402008 363.240601,304.092438 
	C363.232117,305.696075 364.325470,307.792145 361.617920,308.878418 
z"/>
<path fill="#29FEFE" opacity="1.000000" stroke="none" 
	d="
M235.780884,285.319489 
	C236.042450,282.618713 237.007309,280.438385 235.997314,277.762054 
	C236.050537,266.167145 236.076767,254.962112 236.240005,243.759079 
	C236.263367,242.155518 235.211197,240.004440 238.134827,239.117432 
	C238.527451,262.093323 238.476028,285.031219 238.467590,308.429596 
	C235.271729,309.166168 236.275269,306.684631 236.230255,305.140259 
	C236.042526,298.698792 236.001907,292.253021 235.780884,285.319489 
z"/>
<path fill="#00FCFC" opacity="1.000000" stroke="none" 
	d="
M74.625023,239.177811 
	C75.030624,262.113770 75.009163,285.017639 74.989059,308.379120 
	C72.848068,309.258514 72.990860,307.776001 72.991089,306.427063 
	C72.994797,284.607147 72.998848,262.787231 73.013985,240.967316 
	C73.014557,240.139877 73.082390,239.282990 74.625023,239.177811 
z"/>
<path fill="#00DCDC" opacity="1.000000" stroke="none" 
	d="
M312.565857,239.169220 
	C312.963379,262.110321 312.932526,285.015686 312.902802,308.378174 
	C310.358582,309.229126 310.833405,307.340088 310.831940,305.971283 
	C310.808990,284.618317 310.810547,263.265320 310.835876,241.912323 
	C310.837128,240.845490 310.487915,239.485184 312.565857,239.169220 
z"/>
<path fill="#FF21FF" opacity="1.000000" stroke="none" 
	d="
M141.179810,308.917877 
	C140.748184,285.947479 140.752350,263.013733 140.722290,239.622818 
	C143.530502,238.887390 142.886810,241.028854 142.889282,242.516190 
	C142.924225,263.563995 142.923874,284.611969 142.884430,305.659760 
	C142.882217,306.840668 143.505127,308.430054 141.179810,308.917877 
z"/>
<path fill="#00FCFC" opacity="1.000000" stroke="none" 
	d="
M146.622528,239.177094 
	C147.027817,262.113251 147.006149,285.018066 146.986343,308.380554 
	C144.845093,309.256653 144.991364,307.772278 144.991577,306.424896 
	C144.995132,284.606445 144.999176,262.787994 145.014236,240.969528 
	C145.014801,240.142563 145.080368,239.285004 146.622528,239.177094 
z"/>
<path fill="#00FCFC" opacity="1.000000" stroke="none" 
	d="
M109.694618,239.155121 
	C110.027802,262.113281 110.006142,285.018066 109.986343,308.380554 
	C106.557579,308.964935 108.066719,306.314087 108.056557,304.949493 
	C107.935516,288.698883 107.962326,272.447235 107.872025,255.679932 
	C106.333244,250.159973 106.997246,245.099213 107.662231,239.685471 
	C108.402809,239.250748 108.871292,239.176239 109.694618,239.155121 
z"/>
<path fill="#F603F6" opacity="1.000000" stroke="none" 
	d="
M324.446960,308.881592 
	C324.006989,285.933746 323.997131,263.027802 323.974060,239.667892 
	C326.017883,238.829788 326.040802,240.199142 326.040466,241.610504 
	C326.035126,263.432220 326.034424,285.253937 326.024902,307.075653 
	C326.024567,307.905304 325.987732,308.760742 324.446960,308.881592 
z"/>
<path fill="#00DCDC" opacity="1.000000" stroke="none" 
	d="
M275.564697,239.168762 
	C275.961945,262.109985 275.930878,285.015930 275.901367,308.379028 
	C273.358124,309.227905 273.833374,307.339203 273.831909,305.970490 
	C273.808990,284.618073 273.810547,263.265594 273.835876,241.913162 
	C273.837158,240.846451 273.487335,239.486176 275.564697,239.168762 
z"/>
<path fill="#C500C5" opacity="1.000000" stroke="none" 
	d="
M305.287720,284.832275 
	C306.437378,283.684540 306.213867,282.161560 306.210449,280.689728 
	C306.179260,267.161407 306.156311,253.633057 306.096497,239.651154 
	C308.847321,238.748581 308.460754,240.762909 308.463074,242.369904 
	C308.481903,255.342789 308.444550,268.315857 308.500885,281.288513 
	C308.510223,283.443512 307.996948,284.885742 305.287720,284.832275 
z"/>
<path fill="#FF21FF" opacity="1.000000" stroke="none" 
	d="
M178.179810,308.917877 
	C177.748154,285.947449 177.752304,263.013641 177.722168,239.622742 
	C177.967133,239.140350 178.246368,239.115112 178.938919,239.167633 
	C180.429642,240.836746 180.341171,242.593323 180.017578,244.748199 
	C179.942032,264.807373 179.959473,284.492981 179.855057,304.178009 
	C179.846634,305.766052 180.976227,307.886597 178.179810,308.917877 
z"/>
<path fill="#1A1A1A" opacity="1.000000" stroke="none" 
	d="
M264.968628,335.451172 
	C263.883301,340.510864 260.373199,340.491394 256.772125,340.086975 
	C252.830338,339.644318 252.432877,336.516327 252.198044,333.499207 
	C251.662613,326.620209 255.218536,323.183319 261.170990,325.015167 
	C266.458069,326.642212 264.824188,331.265869 264.968628,335.451172 
z"/>
<path fill="#00FCFC" opacity="1.000000" stroke="none" 
	d="
M347.830627,245.747498 
	C351.762085,244.825745 349.978271,247.942627 349.987701,249.309097 
	C350.122620,268.844879 350.079987,288.381927 350.080658,308.376343 
	C346.256805,308.994598 348.008026,306.011169 347.996735,304.571106 
	C347.844269,285.113831 347.870056,265.655182 347.830627,245.747498 
z"/>
<path fill="#F603F6" opacity="1.000000" stroke="none" 
	d="
M342.446960,308.881592 
	C342.018799,289.241669 341.985779,269.643433 342.088287,250.045914 
	C342.096588,248.455750 340.928528,246.384094 343.560394,245.260284 
	C343.998901,265.249664 344.042847,285.170898 343.995178,305.091919 
	C343.992126,306.372345 344.950043,308.159332 342.446960,308.881592 
z"/>
<path fill="#C500C5" opacity="1.000000" stroke="none" 
	d="
M384.586304,308.878479 
	C384.163483,289.132721 384.137543,269.423889 384.228027,249.715637 
	C384.235321,248.126236 383.116272,245.971466 386.020264,245.051239 
	C386.400940,264.768494 386.362976,284.415283 386.204926,304.061127 
	C386.191925,305.673889 387.304504,307.780182 384.586304,308.878479 
z"/>
<path fill="#F603F6" opacity="1.000000" stroke="none" 
	d="
M201.364624,308.878540 
	C200.935349,289.181274 200.900955,269.522308 201.009018,249.864166 
	C201.017639,248.294403 199.782364,246.187225 202.543518,245.122559 
	C202.975494,264.822906 203.010040,284.458130 202.907242,304.092651 
	C202.898972,305.673767 204.096558,307.774902 201.364624,308.878540 
z"/>
<path fill="#00DCDC" opacity="1.000000" stroke="none" 
	d="
M187.563324,245.605255 
	C191.326141,244.899231 189.670639,247.882843 189.680023,249.337936 
	C189.805984,268.866241 189.765244,288.395630 189.767975,308.381531 
	C186.058853,308.805054 187.767838,305.910126 187.756302,304.429718 
	C187.604553,284.974762 187.631287,265.518463 187.563324,245.605255 
z"/>
<path fill="#00FCFC" opacity="1.000000" stroke="none" 
	d="
M371.020386,245.644257 
	C374.592682,244.892212 372.972107,247.661758 372.979492,248.976196 
	C373.089417,268.623535 373.055725,288.271667 373.056732,308.377258 
	C369.275818,308.802521 371.148560,305.863373 371.137329,304.443939 
	C370.983032,284.997192 371.027710,265.548859 371.020386,245.644257 
z"/>
<path fill="#1A1A1A" opacity="1.000000" stroke="none" 
	d="
M207.664825,324.806335 
	C208.703278,324.776520 209.399353,324.644409 210.023483,324.800293 
	C211.345474,325.130493 213.676758,324.092712 213.797302,326.022888 
	C213.970200,328.791718 211.386719,327.195251 210.042969,327.586884 
	C209.027512,327.882904 207.433517,327.221649 207.244934,328.843231 
	C207.070374,330.344208 208.613953,330.493195 209.632690,330.872894 
	C211.182419,331.450470 212.976181,331.733124 213.818878,333.305298 
	C215.003952,335.516266 215.344070,338.167084 212.930130,339.489075 
	C210.302200,340.928253 207.117615,340.680023 204.342682,339.472839 
	C203.509323,339.110321 203.810989,337.551971 205.092285,337.310822 
	C206.212860,337.099945 207.409515,337.330872 208.567062,337.267059 
	C209.489487,337.216156 210.719040,337.481812 210.911331,336.104034 
	C211.087173,334.844269 210.033325,334.467255 209.096191,334.124573 
	C207.547272,333.558105 205.867859,333.206787 204.732925,331.892914 
	C202.562943,329.380768 203.690796,326.322510 207.664825,324.806335 
z"/>
<path fill="#090A0A" opacity="1.000000" stroke="none" 
	d="
M278.989380,327.378845 
	C281.255707,322.718201 285.010345,324.982635 287.877045,325.385986 
	C290.770233,325.793030 291.027832,329.319183 289.724304,331.020966 
	C288.004364,333.266357 289.700165,334.578735 289.766296,336.317780 
	C289.809906,337.465118 292.118011,339.094849 289.532410,339.921661 
	C287.550659,340.555420 286.929993,339.185394 286.765076,337.489807 
	C286.733734,337.167419 286.568146,336.859253 286.474884,336.541504 
	C286.084900,335.212585 285.620972,334.054474 283.851898,334.132904 
	C281.638794,334.230988 282.418549,335.866882 282.212982,337.031708 
	C282.012909,338.165405 282.911682,339.917053 280.702545,339.990143 
	C278.036072,340.078369 279.089935,337.999146 279.033905,336.787109 
	C278.896118,333.807648 278.988800,330.817596 278.989380,327.378845 
z"/>
<path fill="#1A1A1A" opacity="1.000000" stroke="none" 
	d="
M307.314331,340.045349 
	C304.402954,338.224976 302.697662,330.372070 304.302399,327.088318 
	C306.077423,323.456177 309.545319,325.324310 312.310181,324.986542 
	C313.283569,324.867645 314.427032,324.973267 314.203339,326.478638 
	C314.060669,327.438599 313.395233,327.819489 312.425262,327.750214 
	C311.766205,327.703125 311.097839,327.708527 310.438660,327.757660 
	C309.201019,327.849915 307.560242,327.380707 307.599670,329.504730 
	C307.633911,331.349121 309.108124,330.742188 310.135681,330.970520 
	C311.262665,331.220917 313.279572,330.119293 313.303009,332.104309 
	C313.325745,334.027374 311.328491,333.298248 310.141785,333.373901 
	C308.687378,333.466553 307.476715,333.626312 307.569031,335.526367 
	C307.648773,337.167572 308.805450,337.095856 309.983307,337.305023 
	C311.434601,337.562683 314.085419,336.236145 314.063416,338.588440 
	C314.038452,341.254089 311.240356,339.598175 309.726898,340.047302 
	C309.118195,340.227997 308.410492,340.075226 307.314331,340.045349 
z"/>
<path fill="#838383" opacity="1.000000" stroke="none" 
	d="
M421.883545,334.699829 
	C426.652191,335.209900 427.554291,336.204803 425.540283,339.025269 
	C424.978882,339.157501 424.808533,339.298920 424.308716,339.410156 
	C422.677246,338.528748 421.308563,338.133362 419.499695,338.874817 
	C418.835358,339.150208 418.474945,339.344360 417.351379,340.102417 
	C416.370697,340.700195 416.165680,340.757385 415.648438,340.861359 
	C413.882935,340.903107 413.188660,341.812012 412.602722,343.318817 
	C412.145264,343.900391 411.791321,344.094940 411.097351,343.999817 
	C410.785217,343.493866 410.614990,343.325562 410.323151,343.359863 
	C410.240356,343.369568 410.190918,343.407684 410.173340,343.461029 
	C409.964752,344.094238 410.012390,343.281494 410.637085,343.992126 
	C411.019043,345.245239 410.866608,346.131653 410.106934,347.235229 
	C408.882446,348.011169 407.882996,348.062012 406.497498,347.636414 
	C405.508514,346.983795 405.194702,346.297363 404.907227,345.187866 
	C404.713928,344.126862 404.654205,343.419556 404.574036,342.382568 
	C404.646454,341.401855 404.948883,340.890015 405.771118,340.463715 
	C406.373108,340.436035 406.671936,340.337158 406.721191,339.932739 
	C406.267639,339.308655 406.197998,338.791016 406.221252,337.969543 
	C406.301086,337.486603 406.352142,337.293549 406.523254,336.819519 
	C406.841461,336.169128 407.064423,335.815094 407.516571,335.223145 
	C408.058258,334.678345 408.429962,334.445801 409.155548,334.167511 
	C410.366394,333.895172 411.255554,333.950867 412.468445,334.135498 
	C414.565460,334.798950 416.162170,334.161072 418.085693,333.407776 
	C419.675293,333.178162 420.702728,333.651031 421.883545,334.699829 
z"/>
<path fill="#D501D5" opacity="1.000000" stroke="none" 
	d="
M268.314636,284.829346 
	C269.472748,283.644623 269.036865,282.046112 269.037201,280.598114 
	C269.040466,267.101532 269.016022,253.604935 268.975494,239.653656 
	C271.428986,238.845093 271.086060,240.649429 271.088226,242.079056 
	C271.108093,255.215790 271.079742,268.352631 271.124725,281.489227 
	C271.131134,283.355988 270.905945,284.824799 268.314636,284.829346 
z"/>
<path fill="#29FEFE" opacity="1.000000" stroke="none" 
	d="
M395.901581,239.092651 
	C396.262482,254.037552 396.258698,268.927002 396.344910,284.258850 
	C392.952606,284.828705 394.078094,282.159424 394.064789,280.483612 
	C393.973114,268.946198 394.007751,257.407745 393.969299,245.397232 
	C392.785706,243.360962 392.833191,241.690735 393.798767,239.650787 
	C394.579437,239.236221 395.058167,239.136719 395.901581,239.092651 
z"/>
<path fill="#090A0A" opacity="1.000000" stroke="none" 
	d="
M228.604431,327.737061 
	C226.577637,326.338440 226.261597,325.220673 228.835403,325.018799 
	C230.650711,324.876373 232.506088,324.815430 234.306000,325.031403 
	C235.980392,325.232330 238.598434,323.874146 239.158066,325.907959 
	C239.906464,328.627899 236.919373,327.268707 235.718842,327.974457 
	C234.455124,328.717377 235.278931,330.068054 234.968567,331.088623 
	C234.083389,333.999481 236.864731,339.503326 233.476639,339.488556 
	C229.402084,339.470764 232.511368,334.173920 231.770599,331.290802 
	C231.321548,329.543060 231.926971,327.486938 228.604431,327.737061 
z"/>
<path fill="#E7E7E7" opacity="1.000000" stroke="none" 
	d="
M418.671936,333.841797 
	C416.944275,335.005371 415.426971,336.812073 412.948242,335.231903 
	C412.092896,334.117523 411.895569,333.171509 411.854126,331.819275 
	C411.944611,329.753510 412.736176,328.334808 413.770386,327.049622 
	C415.395660,325.029999 414.828918,323.484497 412.557190,321.961487 
	C411.762146,321.196777 411.417786,320.570923 411.321350,319.456421 
	C411.432922,318.857300 411.526093,318.628235 411.916992,318.177979 
	C415.792419,317.597839 418.535522,318.743042 419.969269,322.641724 
	C417.830322,325.361511 418.329559,328.621216 417.049072,331.652954 
	C417.605194,332.454529 418.275360,332.791626 418.671936,333.841797 
z"/>
<path fill="#9F9F9F" opacity="1.000000" stroke="none" 
	d="
M417.799805,357.303589 
	C422.027069,356.870209 420.550873,359.594666 419.845581,361.195374 
	C417.948303,365.501312 408.707214,369.318787 404.257568,367.760773 
	C402.788727,367.246521 400.571960,366.605927 401.193390,364.534760 
	C401.900482,362.178162 403.630981,363.976593 404.833649,364.371674 
	C408.274109,365.501892 410.824768,363.332794 414.031219,362.106506 
	C415.424133,360.520660 417.115875,359.489532 417.799805,357.303589 
z"/>
<path fill="#E7E7E7" opacity="1.000000" stroke="none" 
	d="
M405.651001,343.919556 
	C405.942535,344.804932 405.925323,345.535461 405.922607,346.631775 
	C405.861420,347.463135 405.666473,347.874786 405.106689,348.473328 
	C404.438324,348.968903 404.022400,349.207275 403.251984,349.573364 
	C402.670288,349.803680 402.428955,349.881683 401.809967,350.040405 
	C397.998138,350.223907 394.303040,350.970184 392.855804,346.212585 
	C392.892151,343.763916 394.648010,342.656952 395.601837,341.181213 
	C396.230194,340.209045 396.626648,338.199738 398.213226,338.699280 
	C399.836975,339.210510 398.653290,341.041504 398.989746,342.624817 
	C400.904968,345.007690 403.168823,344.004517 405.651001,343.919556 
z"/>
<path fill="#D501D5" opacity="1.000000" stroke="none" 
	d="
M88.132034,277.537689 
	C85.945175,278.394012 86.136406,276.862823 86.134415,275.568573 
	C86.120293,266.362610 86.123512,257.156616 86.130470,247.950653 
	C86.131462,246.631058 86.014900,245.206146 88.397827,245.103302 
	C88.726601,245.290543 88.592613,245.452164 88.764122,245.537415 
	C87.265579,249.420303 88.382515,253.598862 88.247879,257.666565 
	C88.033997,264.128113 88.180084,270.601562 88.132034,277.537689 
z"/>
<path fill="#FF21FF" opacity="1.000000" stroke="none" 
	d="
M409.695984,277.474182 
	C408.413605,278.235748 407.666168,277.773621 407.694153,276.512970 
	C407.920685,266.313629 407.003082,256.095459 408.661316,245.627106 
	C409.138123,245.874008 409.364441,245.920059 410.004883,245.795334 
	C409.196442,256.302734 410.137665,266.669312 409.695984,277.474182 
z"/>
<path fill="#838383" opacity="1.000000" stroke="none" 
	d="
M417.856750,356.724243 
	C419.584717,360.197296 417.381805,361.108612 414.726196,361.988525 
	C411.570953,360.540680 408.502411,359.830963 404.182434,359.952606 
	C406.843140,357.490082 412.784729,359.260040 409.875793,353.501556 
	C409.276154,351.602448 410.439575,350.980103 411.805847,350.133362 
	C412.858307,349.746857 413.585419,349.620392 414.669373,349.835449 
	C415.000793,349.999664 415.189819,349.893707 415.294739,349.920654 
	C415.514801,350.745667 415.765045,351.538391 415.247040,352.674805 
	C414.526215,353.412323 413.923706,353.746674 413.606567,354.258057 
	C412.981934,355.265198 411.326904,356.208252 412.459381,357.529663 
	C413.556274,358.809479 414.777039,357.374878 415.922607,357.002228 
	C416.519531,356.808044 417.119476,356.623138 417.856750,356.724243 
z"/>
<path fill="#F603F6" opacity="1.000000" stroke="none" 
	d="
M427.454712,308.884552 
	C427.005493,298.970337 426.986237,289.095062 426.925537,278.775513 
	C428.349274,278.113770 429.039948,278.746307 429.032501,280.226227 
	C428.985901,289.504547 428.959747,298.783081 428.868378,308.060944 
	C428.865479,308.351685 428.226929,308.636139 427.454712,308.884552 
z"/>
<path fill="#F603F6" opacity="1.000000" stroke="none" 
	d="
M306.618835,308.887024 
	C304.693542,301.933411 303.133545,295.030334 301.650452,288.110748 
	C301.418213,287.027191 300.046967,285.652832 302.490356,284.917480 
	C304.469452,291.714264 306.109772,298.415100 307.599640,305.149261 
	C307.868652,306.365112 309.127441,307.988007 306.618835,308.887024 
z"/>
<path fill="#25E8E8" opacity="1.000000" stroke="none" 
	d="
M287.524719,285.372192 
	C290.330017,284.087036 289.920898,286.425171 290.257538,287.828522 
	C291.875214,294.571869 293.415253,301.333893 295.037048,308.485748 
	C292.453735,309.480957 292.577606,307.284210 292.213165,305.850128 
	C291.275787,302.161469 290.520569,298.426544 289.452576,294.351471 
	C287.353699,291.515991 287.742035,288.580566 287.524719,285.372192 
z"/>
<path fill="#D501D5" opacity="1.000000" stroke="none" 
	d="
M86.543358,308.879456 
	C86.117920,302.346466 86.054520,295.852112 86.173172,289.361084 
	C86.200676,287.856415 85.254471,285.989197 87.616920,284.902527 
	C88.099770,292.004211 88.165749,299.060181 88.167656,306.116150 
	C88.167931,307.156281 88.608391,308.519867 86.543358,308.879456 
z"/>
<path fill="#00DCDC" opacity="1.000000" stroke="none" 
	d="
M410.701843,245.897568 
	C410.012268,245.799881 409.741058,245.679886 409.291016,245.475204 
	C415.728271,245.120850 415.896973,245.123138 415.809784,251.548233 
	C415.769623,254.508774 416.529694,255.820862 419.631134,255.544022 
	C421.591125,255.369034 423.584900,255.572418 425.990173,255.584030 
	C426.725739,255.578674 427.034607,255.595367 426.915070,255.790314 
	C424.684601,255.964188 422.882538,255.954422 421.080444,255.956451 
	C414.172028,255.964249 414.124084,255.968399 413.722198,248.988327 
	C413.617615,247.171844 413.517242,245.651840 410.701843,245.897568 
z"/>
<path fill="#FF21FF" opacity="1.000000" stroke="none" 
	d="
M250.277771,308.922668 
	C249.860626,302.333405 249.816040,295.778564 249.949585,289.227325 
	C249.979263,287.771179 248.973282,285.910278 251.425980,284.951904 
	C251.899719,291.922241 251.975433,298.816162 251.944351,305.709656 
	C251.939163,306.858490 252.630020,308.457184 250.277771,308.922668 
z"/>
<path fill="#9F9F9F" opacity="1.000000" stroke="none" 
	d="
M413.362854,350.640289 
	C412.067322,351.113922 410.941772,351.483673 410.015625,352.868103 
	C407.093079,350.573273 403.811920,351.642609 400.259705,351.802734 
	C399.021210,349.052887 401.181213,349.742859 402.722046,349.182068 
	C403.000854,348.935883 402.996277,348.998779 402.967987,348.984863 
	C403.400635,348.623810 403.948639,348.525421 404.734680,348.282990 
	C405.147278,347.853058 405.321533,347.566345 405.716431,347.138611 
	C407.079498,346.946381 408.221924,346.895203 409.793060,346.849426 
	C410.403351,346.739227 410.584869,346.623627 411.084076,346.493347 
	C411.597137,346.548889 411.792511,346.619141 412.188538,346.920959 
	C412.705353,347.859070 412.564758,348.682098 413.114807,349.600891 
	C413.331726,350.011322 413.388367,350.190765 413.362854,350.640289 
z"/>
<path fill="#25E8E8" opacity="1.000000" stroke="none" 
	d="
M180.262299,245.105652 
	C178.733170,243.539810 179.551849,241.707565 179.340439,239.624207 
	C188.791458,238.470367 198.245056,239.024048 208.150589,239.057678 
	C201.224960,239.174683 193.830078,239.405411 186.460220,239.076248 
	C182.537308,238.901016 181.020508,240.118134 181.720840,244.433212 
	C181.369858,244.968552 180.969238,245.028992 180.262299,245.105652 
z"/>
<path fill="#F603F6" opacity="1.000000" stroke="none" 
	d="
M287.328003,285.344879 
	C288.049133,287.766724 288.582764,290.555908 289.164490,293.668976 
	C289.156433,297.887787 289.160522,301.785095 289.006134,305.676178 
	C288.961426,306.803253 289.764374,308.380493 287.447510,308.882019 
	C287.058960,301.130951 287.099701,293.421600 287.328003,285.344879 
z"/>
<path fill="#090A0A" opacity="1.000000" stroke="none" 
	d="
M423.334564,338.266998 
	C423.945984,338.510437 424.174194,338.639648 424.775818,338.892456 
	C424.752014,340.856628 423.700745,342.309418 422.221191,343.900177 
	C420.879913,345.966919 419.531891,347.331299 416.773560,346.470184 
	C415.637695,346.165070 415.338684,345.524200 415.094666,344.450470 
	C415.044464,343.864655 415.045746,343.629974 415.098877,343.050232 
	C415.218750,342.484924 415.286804,342.264648 415.513000,341.739807 
	C415.957397,341.082764 416.274597,340.761200 416.922119,340.312622 
	C417.215515,340.148712 417.109192,340.107819 417.131592,340.160187 
	C418.771912,338.640778 420.727234,338.018494 423.334564,338.266998 
z"/>
<path fill="#9F9F9F" opacity="1.000000" stroke="none" 
	d="
M431.639038,344.127869 
	C432.532471,348.637451 428.588806,349.655945 426.060638,351.722382 
	C425.842621,351.900635 424.741577,351.431671 424.459045,350.997589 
	C424.023315,350.328186 424.135742,349.524261 424.677063,348.739502 
	C426.321442,346.355591 428.371277,344.621490 431.639038,344.127869 
z"/>
<path fill="#646464" opacity="1.000000" stroke="none" 
	d="
M411.132812,302.459625 
	C407.986755,303.327545 406.703461,302.018097 407.105865,298.805725 
	C407.306519,297.204010 407.128387,295.554871 407.090485,293.476990 
	C412.737946,294.097473 410.811493,298.576416 411.132812,302.459625 
z"/>
<path fill="#646464" opacity="1.000000" stroke="none" 
	d="
M411.590515,318.823059 
	C412.041534,319.652588 412.265350,320.251556 412.782349,320.998230 
	C412.220886,325.536285 410.053955,327.424042 404.910065,326.784698 
	C404.365601,324.622589 404.684570,323.183044 405.051575,321.362091 
	C405.277008,320.328308 405.724030,319.937958 406.636841,319.689545 
	C407.984467,319.969635 408.802917,319.513702 409.838379,318.721039 
	C410.530579,318.462860 410.947937,318.478058 411.590515,318.823059 
z"/>
<path fill="#29FEFE" opacity="1.000000" stroke="none" 
	d="
M89.438309,245.466736 
	C89.069626,245.461060 88.814766,245.391159 88.837677,245.260040 
	C91.384727,245.278152 94.587440,243.755280 94.385971,248.781708 
	C94.126404,255.257248 94.464798,255.270660 101.027969,255.278503 
	C101.858467,255.279510 102.688957,255.283203 103.939606,255.291260 
	C104.732864,255.361313 105.105980,255.425812 104.955612,255.710587 
	C102.961014,255.884872 101.489944,255.800888 100.018776,255.799164 
	C92.762283,255.790634 92.723389,255.801437 92.128754,248.402649 
	C91.998665,246.784027 91.904633,245.407806 89.438309,245.466736 
z"/>
<path fill="#00DCDC" opacity="1.000000" stroke="none" 
	d="
M413.666779,285.363525 
	C414.186554,284.947205 415.340332,284.965820 415.345734,285.054321 
	C415.710907,291.052246 417.144348,297.108643 414.162476,302.925629 
	C413.734344,297.188965 413.749573,291.510040 413.666779,285.363525 
z"/>
<path fill="#646464" opacity="1.000000" stroke="none" 
	d="
M415.762268,342.615784 
	C415.936310,343.695007 415.996948,344.525879 416.043732,345.773743 
	C416.204041,346.295105 416.378235,346.399536 416.429993,346.782928 
	C415.939789,347.832703 415.572083,348.603485 415.102570,349.686981 
	C414.572021,350.232361 414.143250,350.465088 413.497559,350.804077 
	C413.280670,350.910339 413.136902,350.457916 413.065552,350.231537 
	C412.430054,349.554382 412.459381,348.931274 412.505005,347.996338 
	C412.514893,346.848328 412.008698,346.139801 411.908691,344.721100 
	C412.651031,342.368286 410.110260,337.929718 415.744873,339.961487 
	C416.386566,340.456970 416.475128,340.927094 416.222839,341.751648 
	C416.038940,342.073669 416.010132,342.007263 416.044373,342.018982 
	C415.935364,342.142944 415.792114,342.255188 415.762268,342.615784 
z"/>
<path fill="#FF21FF" opacity="1.000000" stroke="none" 
	d="
M104.850555,255.825150 
	C104.432129,255.930923 104.363876,255.617218 104.361816,255.457047 
	C107.341042,253.176361 105.364014,250.122192 105.724655,247.530533 
	C106.063972,245.092194 105.767807,242.565430 105.717514,239.622192 
	C106.187119,239.160751 106.690430,239.154663 107.564041,239.236923 
	C107.931244,244.344910 107.928154,249.364578 107.859375,254.774139 
	C106.952103,255.349152 106.110542,255.534256 104.850555,255.825150 
z"/>
<path fill="#F603F6" opacity="1.000000" stroke="none" 
	d="
M426.910431,255.845169 
	C426.486694,255.968552 426.426208,255.769745 426.421509,255.665863 
	C427.773621,250.456955 426.720642,245.260971 426.985138,239.661804 
	C427.293030,239.200104 427.780731,239.050156 427.913727,239.204941 
	C429.880951,241.494659 429.441803,253.216965 426.910431,255.845169 
z"/>
<path fill="#9F9F9F" opacity="1.000000" stroke="none" 
	d="
M418.983398,334.252136 
	C418.216705,333.700470 417.729034,333.192261 417.125183,332.358917 
	C419.027252,332.028351 419.272003,329.738739 420.729279,329.128632 
	C421.584625,328.770569 421.595459,326.864624 423.391327,328.002899 
	C425.227631,329.166840 424.005402,330.220123 423.766876,331.306427 
	C423.525940,332.403809 422.003998,332.851318 422.163513,334.553284 
	C421.206329,334.695465 420.234375,334.495544 418.983398,334.252136 
z"/>
<path fill="#1A1A1A" opacity="1.000000" stroke="none" 
	d="
M215.010376,261.065430 
	C216.380005,260.270477 215.008163,259.428741 214.950897,258.617554 
	C214.810394,256.627014 215.227905,254.884460 217.215134,254.202866 
	C218.574509,253.736618 219.323547,255.057129 219.626678,256.114288 
	C220.241318,258.257935 219.631409,260.047546 217.315216,260.760406 
	C216.782654,260.924286 216.071259,260.507080 215.205353,260.715454 
	C214.968567,261.073578 215.028961,261.031738 215.010376,261.065430 
z"/>
<path fill="#29FEFE" opacity="1.000000" stroke="none" 
	d="
M395.811157,292.929138 
	C396.222198,297.958191 396.181335,302.966309 396.171997,308.433472 
	C395.717499,308.858917 394.823425,308.895081 394.804077,308.781738 
	C393.894562,303.458282 392.832825,298.113007 395.811157,292.929138 
z"/>
<path fill="#1A1A1A" opacity="1.000000" stroke="none" 
	d="
M225.915985,273.022522 
	C225.805649,272.961487 225.652878,272.873871 225.494553,272.862305 
	C222.416626,272.636749 221.672882,270.633453 222.192551,268.085144 
	C222.449585,266.824799 223.503387,265.480621 225.073029,266.486115 
	C227.461487,268.016113 227.637054,270.102295 225.864197,272.726501 
	C225.839890,273.117706 225.870956,273.031372 225.915985,273.022522 
z"/>
<path fill="#838383" opacity="1.000000" stroke="none" 
	d="
M407.250061,319.815796 
	C406.448792,320.285553 406.010376,320.535645 405.335754,320.883209 
	C403.995453,317.062500 406.121674,313.594116 406.731049,309.547241 
	C407.332855,309.169312 407.845581,309.146271 408.745300,309.164581 
	C410.334381,312.919189 409.569672,316.344849 407.250061,319.815796 
z"/>
<path fill="#646464" opacity="1.000000" stroke="none" 
	d="
M402.570953,348.859497 
	C401.987976,349.648621 400.975128,350.361389 399.915894,351.401398 
	C395.714722,353.344879 392.646454,351.071442 392.683258,346.001038 
	C394.867462,350.533203 398.757202,348.872284 402.570953,348.859497 
z"/>
<path fill="#E7E7E7" opacity="1.000000" stroke="none" 
	d="
M406.938232,320.368805 
	C407.583099,316.681671 408.278992,313.327850 409.053589,309.589996 
	C409.857513,309.180878 410.582794,309.155792 411.668152,309.181458 
	C412.040833,309.617310 412.053375,310.002441 412.041626,310.675720 
	C410.043945,313.153625 411.654572,316.021393 410.429749,318.729187 
	C409.771973,320.835144 409.048096,322.101501 406.938232,320.368805 
z"/>
<path fill="#9F9F9F" opacity="1.000000" stroke="none" 
	d="
M409.542175,334.712402 
	C409.020813,335.092743 408.753906,335.265015 408.299591,335.587219 
	C407.865723,336.021088 407.625427,336.322998 407.177368,336.828552 
	C406.980743,337.041046 406.983429,336.984650 407.011658,336.984863 
	C406.882141,337.130280 406.724396,337.275543 406.255432,337.501343 
	C404.278168,337.325653 402.772186,336.528931 400.902618,335.953766 
	C400.665588,335.747894 400.735413,335.542145 400.842163,335.562317 
	C400.814850,335.224213 400.680756,334.865906 401.028992,334.196655 
	C401.511292,333.885681 401.499817,333.970581 401.458038,333.961121 
	C401.880310,333.711487 402.416931,333.609375 402.693054,332.979004 
	C402.563507,332.552979 402.544891,332.370605 402.534637,331.905884 
	C402.582489,331.434631 402.621979,331.245697 402.806458,330.800171 
	C403.467468,329.913879 404.069580,329.375732 405.007568,328.767639 
	C405.507935,328.675720 405.716431,328.700500 406.170929,328.922211 
	C407.058716,329.905640 407.095764,331.086212 408.352234,331.804230 
	C409.548645,332.552612 410.697174,333.046448 409.542175,334.712402 
z"/>
<path fill="#D501D5" opacity="1.000000" stroke="none" 
	d="
M93.387482,284.832489 
	C94.672310,282.809052 94.502365,280.754395 93.418961,278.417908 
	C95.308823,277.843994 96.429428,278.496124 96.379974,280.763428 
	C96.336067,282.776154 96.700218,284.932159 93.387482,284.832489 
z"/>
<path fill="#E7E7E7" opacity="1.000000" stroke="none" 
	d="
M406.103394,337.210022 
	C406.465271,337.077820 406.760498,337.080414 406.900208,337.032715 
	C406.994904,337.736847 406.949890,338.488617 406.952698,339.620056 
	C407.172058,340.173828 407.343597,340.347961 407.216003,340.734131 
	C406.296600,341.106201 405.676270,341.266205 404.840393,341.677094 
	C404.411621,343.172668 403.644958,343.569763 402.203796,343.069397 
	C402.118286,342.298096 402.295929,341.794312 402.707886,341.153442 
	C403.458008,340.558014 403.543274,340.006470 403.069824,339.177979 
	C402.023132,338.730011 400.550781,339.826569 400.766052,337.697052 
	C402.465240,335.098022 404.153931,337.512421 406.103394,337.210022 
z"/>
<path fill="#9F9F9F" opacity="1.000000" stroke="none" 
	d="
M401.585449,342.930145 
	C402.659637,342.584717 403.378632,342.367615 404.361267,342.039246 
	C405.342010,342.157440 405.838440,342.589905 405.956696,343.723633 
	C403.279266,346.336426 400.791107,346.266663 398.762512,343.237061 
	C399.741089,343.027863 400.485687,343.043152 401.585449,342.930145 
z"/>
<path fill="#E7E7E7" opacity="1.000000" stroke="none" 
	d="
M416.639587,347.146729 
	C416.307526,347.061890 416.234680,346.605255 416.132263,346.397949 
	C418.070770,346.372406 419.707703,345.362854 421.690369,344.280396 
	C421.769379,345.685181 422.712433,347.579041 421.121552,348.636353 
	C419.361145,349.806396 418.263489,348.008789 416.639587,347.146729 
z"/>
<path fill="#838383" opacity="1.000000" stroke="none" 
	d="
M410.508301,319.060211 
	C410.504608,316.360962 408.879150,313.433838 411.599548,310.961731 
	C412.039368,313.006775 412.061432,315.049683 412.149109,317.524689 
	C412.150055,318.140076 412.085327,318.323395 411.919128,318.780212 
	C411.468506,319.052246 411.119263,319.050873 410.508301,319.060211 
z"/>
<path fill="#C500C5" opacity="1.000000" stroke="none" 
	d="
M393.765991,239.244034 
	C394.084869,240.933334 394.069031,242.530914 393.995026,244.526672 
	C393.543274,244.950226 393.149719,244.975632 392.470551,244.928528 
	C392.162872,243.238480 392.140747,241.620911 392.090088,239.600372 
	C392.518127,239.182373 392.974701,239.167343 393.765991,239.244034 
z"/>
<path fill="#00FCFC" opacity="1.000000" stroke="none" 
	d="
M363.629608,245.011902 
	C363.245636,243.401291 363.143982,241.782455 363.050171,239.761124 
	C363.503693,239.274445 363.949310,239.190277 364.734589,239.159149 
	C365.057770,240.821838 365.041351,242.431488 365.025818,244.443573 
	C364.655121,244.898560 364.283508,244.951111 363.629608,245.011902 
z"/>
<path fill="#F603F6" opacity="1.000000" stroke="none" 
	d="
M208.751923,239.636505 
	C208.609436,239.176788 208.613922,239.082657 208.594025,239.040024 
	C212.843170,240.195404 211.148193,242.596863 209.364319,244.890717 
	C208.935867,243.263687 208.915146,241.679962 208.751923,239.636505 
z"/>
<path fill="#838383" opacity="1.000000" stroke="none" 
	d="
M406.112732,336.976501 
	C404.977264,339.613007 403.286346,337.419891 401.324890,337.406036 
	C400.768188,337.256897 400.570282,336.984741 400.518982,336.230225 
	C402.657562,334.796051 404.264862,335.582581 406.112732,336.976501 
z"/>
<path fill="#646464" opacity="1.000000" stroke="none" 
	d="
M405.747681,292.725220 
	C403.367706,292.966644 400.631683,293.061188 397.457153,293.044434 
	C399.777008,292.044769 402.596069,292.588226 405.747681,292.725220 
z"/>
<path fill="#E7E7E7" opacity="1.000000" stroke="none" 
	d="
M415.002472,353.279175 
	C415.108551,352.236938 415.217346,351.475861 415.362915,350.331207 
	C417.386597,351.353607 417.247345,352.820740 415.509277,354.313843 
	C415.481750,354.337524 415.226257,354.161804 415.142395,354.035767 
	C415.055328,353.904755 415.047607,353.721008 415.002472,353.279175 
z"/>
<path fill="#E7E7E7" opacity="1.000000" stroke="none" 
	d="
M420.017303,322.982910 
	C421.244019,323.046936 422.286438,323.410431 422.632812,324.728790 
	C422.785187,325.308624 422.408661,325.699799 421.861389,325.662720 
	C420.678680,325.582672 420.324799,324.651093 420.013916,323.356384 
	C419.974152,323.026642 420.002716,322.997375 420.017303,322.982910 
z"/>
<path fill="#646464" opacity="1.000000" stroke="none" 
	d="
M402.291870,329.237244 
	C401.568817,327.643127 402.554260,326.903564 403.699860,326.072083 
	C404.046631,326.062103 403.997253,326.019165 403.968842,326.002930 
	C404.253693,326.244049 404.593933,326.458710 405.164734,326.859375 
	C405.396851,327.290222 405.424774,327.493347 405.331390,327.980103 
	C404.708679,328.627808 404.284698,329.090332 403.445557,329.482941 
	C402.936127,329.517303 402.731049,329.480713 402.291870,329.237244 
z"/>
<path fill="#1A1A1A" opacity="1.000000" stroke="none" 
	d="
M401.937744,329.540894 
	C402.057709,329.030426 402.547760,329.053436 402.791687,329.027435 
	C403.376190,329.361359 403.530304,329.788574 403.332397,330.599731 
	C403.096619,331.067780 403.026428,331.219116 402.971191,331.620178 
	C402.844025,332.066559 402.701874,332.263153 402.270386,332.680389 
	C400.886505,332.010742 401.575287,331.018280 401.937744,329.540894 
z"/>
<path fill="#646464" opacity="1.000000" stroke="none" 
	d="
M402.666656,332.721436 
	C403.577179,334.096436 402.453003,333.729462 401.689819,333.935242 
	C401.364807,333.687958 401.313354,333.424225 401.609314,332.956146 
	C402.121185,332.692291 402.285675,332.632782 402.666656,332.721436 
z"/>
<path fill="#838383" opacity="1.000000" stroke="none" 
	d="
M402.815735,339.316101 
	C404.646515,338.856110 404.438232,339.665466 403.299652,340.877533 
	C402.890686,340.563965 402.839172,340.111572 402.815735,339.316101 
z"/>
<path fill="#646464" opacity="1.000000" stroke="none" 
	d="
M401.383667,333.453125 
	C401.404053,334.163940 401.296814,334.442200 401.069244,335.151489 
	C400.248718,335.741577 399.652863,335.493256 399.687561,334.774658 
	C399.731140,333.872650 399.972748,332.919250 401.383667,333.453125 
z"/>
<path fill="#E7E7E7" opacity="1.000000" stroke="none" 
	d="
M402.889954,332.617706 
	C402.883179,332.869568 402.414246,332.833221 402.185486,332.792511 
	C401.956726,332.751801 402.013550,332.811188 401.997314,332.856110 
	C402.072235,332.654785 402.163452,332.408569 402.620422,332.016144 
	C402.956360,332.035278 402.926575,332.200562 402.889954,332.617706 
z"/>
<path fill="#E7E7E7" opacity="1.000000" stroke="none" 
	d="
M426.444122,341.531555 
	C426.410645,341.477020 426.477600,341.586090 426.444122,341.531555 
z"/>
<path fill="#FEE9FE" opacity="1.000000" stroke="none" 
	d="
M127.360779,302.429596 
	C126.068146,302.886261 125.042023,302.929718 123.631912,302.927429 
	C122.048378,301.941528 122.025002,300.591980 122.023903,299.257690 
	C122.009880,282.159424 121.953011,265.061127 122.052048,247.962936 
	C122.055931,247.293106 122.221092,246.649353 122.803421,245.656372 
	C124.155983,245.236710 125.187370,245.192520 126.599480,245.222061 
	C128.025208,246.342667 127.978043,247.695358 127.979103,249.012329 
	C127.992752,266.031677 128.034027,283.051025 127.960625,300.070312 
	C127.957764,300.734955 127.832031,301.383728 127.360779,302.429596 
z"/>
<path fill="#29FEFE" opacity="1.000000" stroke="none" 
	d="
M127.532677,302.896118 
	C127.074478,283.959747 127.054688,265.076721 127.007553,245.744751 
	C128.886063,244.768280 129.269257,245.848938 129.268326,247.414459 
	C129.257523,265.346436 129.257645,283.278381 129.250488,301.210358 
	C129.250137,302.089050 129.048264,302.848816 127.532677,302.896118 
z"/>
<path fill="#D501D5" opacity="1.000000" stroke="none" 
	d="
M122.707886,245.223175 
	C123.134094,264.175018 123.143585,283.069092 123.200500,302.422424 
	C121.711433,303.236237 121.132446,302.529938 121.134369,301.056427 
	C121.158112,282.899933 121.167946,264.743439 121.190750,246.586975 
	C121.191658,245.865417 121.545029,245.345596 122.707886,245.223175 
z"/>
<path fill="#FEE9FE" opacity="1.000000" stroke="none" 
	d="
M159.803406,245.656387 
	C161.155975,245.236710 162.187378,245.192505 163.599487,245.222046 
	C165.025238,246.342667 164.978043,247.695374 164.979095,249.012329 
	C164.992752,266.031677 165.034042,283.051025 164.960617,300.070312 
	C164.957748,300.734955 164.832016,301.383698 164.360794,302.429565 
	C163.068161,302.886230 162.042023,302.929688 160.631897,302.927368 
	C159.048370,301.941467 159.025009,300.591919 159.023911,299.257660 
	C159.009888,282.159424 158.953003,265.061127 159.052063,247.962952 
	C159.055939,247.293121 159.221085,246.649368 159.803406,245.656387 
z"/>
<path fill="#D501D5" opacity="1.000000" stroke="none" 
	d="
M159.707870,245.223190 
	C160.134094,264.175018 160.143585,283.069092 160.200500,302.422394 
	C158.711349,303.236267 158.132446,302.529907 158.134369,301.056396 
	C158.158127,282.899933 158.167953,264.743469 158.190765,246.587006 
	C158.191666,245.865448 158.544983,245.345596 159.707870,245.223190 
z"/>
<path fill="#29FEFE" opacity="1.000000" stroke="none" 
	d="
M164.532684,302.896118 
	C164.074493,283.959778 164.054703,265.076721 164.007568,245.744751 
	C165.886093,244.768265 166.269257,245.848953 166.268326,247.414459 
	C166.257523,265.346405 166.257660,283.278381 166.250488,301.210327 
	C166.250137,302.088989 166.048309,302.848816 164.532684,302.896118 
z"/>
<path fill="#FFFFFF" opacity="1.000000" stroke="none" 
	d="
M288.687317,245.721466 
	C290.042145,245.273270 291.108307,245.216537 292.570007,245.230103 
	C293.433014,245.790588 293.844910,246.367188 293.846588,247.032486 
	C293.872223,257.097321 294.532135,267.170288 293.213348,277.619476 
	C291.856659,278.059204 290.785309,278.102173 289.322052,278.049194 
	C287.618317,276.206726 287.991699,274.162201 288.028809,272.227509 
	C288.195740,263.523102 287.532104,254.806534 288.687317,245.721466 
z"/>
<path fill="#00FCFC" opacity="1.000000" stroke="none" 
	d="
M293.378326,278.111237 
	C292.952179,267.410339 292.976318,256.804413 292.983032,245.749451 
	C294.036652,245.042206 295.025299,245.045135 295.022552,246.499985 
	C295.003052,256.797546 294.961426,267.095154 294.867462,277.392151 
	C294.864990,277.666656 294.190002,277.934998 293.378326,278.111237 
z"/>
<path fill="#F603F6" opacity="1.000000" stroke="none" 
	d="
M288.560272,245.262299 
	C288.992523,255.895523 289.009064,266.461029 288.977875,277.489929 
	C287.719421,278.233368 287.032471,277.848083 287.037598,276.510803 
	C287.076385,266.366089 287.099976,256.221344 287.184479,246.077042 
	C287.186951,245.780243 287.810547,245.488632 288.560272,245.262299 
z"/>
<path fill="#FFFFFF" opacity="1.000000" stroke="none" 
	d="
M256.118042,277.631775 
	C254.741104,278.046143 253.688354,278.092133 252.253174,278.034241 
	C250.331039,275.286682 251.024506,272.382019 251.050949,269.608734 
	C251.125519,261.789917 250.564896,253.960068 251.640610,245.752472 
	C252.956070,245.297348 253.996063,245.241409 255.423691,245.247467 
	C256.332336,245.751999 256.811096,246.303619 256.815186,246.969635 
	C256.877625,257.069550 257.572357,267.178375 256.118042,277.631775 
z"/>
<path fill="#00FCFC" opacity="1.000000" stroke="none" 
	d="
M256.243561,278.082947 
	C255.813583,267.402222 255.833313,256.804291 255.832184,245.757889 
	C256.877167,245.076279 257.857910,245.078644 257.855164,246.532013 
	C257.835693,256.801147 257.800049,267.070343 257.711182,277.339020 
	C257.708801,277.617523 257.047363,277.890289 256.243561,278.082947 
z"/>
<path fill="#FF21FF" opacity="1.000000" stroke="none" 
	d="
M251.500320,245.278839 
	C251.930740,255.904373 251.945389,266.455444 251.915390,277.468475 
	C250.714081,278.215088 249.923218,277.923370 249.927612,276.583466 
	C249.960953,266.400421 249.999832,256.217316 250.094040,246.034744 
	C250.096619,245.754929 250.739990,245.481049 251.500320,245.278839 
z"/>
<path fill="#E7E7E7" opacity="1.000000" stroke="none" 
	d="
M258.835693,337.568359 
	C256.065979,335.807190 254.731873,330.468658 256.406189,328.578552 
	C257.822845,326.979309 260.115753,326.639771 260.885193,328.787506 
	C261.946838,331.750854 263.102356,335.274811 258.835693,337.568359 
z"/>
<path fill="#E7E7E7" opacity="1.000000" stroke="none" 
	d="
M282.267334,328.339691 
	C284.166931,326.715363 285.913086,326.779266 286.829651,328.867035 
	C287.484039,330.357605 286.410309,331.336060 284.846161,331.614929 
	C282.427551,332.046082 281.958710,330.691650 282.267334,328.339691 
z"/>
<path fill="#646464" opacity="1.000000" stroke="none" 
	d="
M409.646423,334.962280 
	C409.295349,334.200897 410.263428,333.071167 408.261902,332.997253 
	C407.442719,332.372040 407.208191,331.653168 407.480591,330.463440 
	C409.134155,328.779510 410.568359,329.481842 412.274292,330.528748 
	C413.840027,331.759247 413.280304,332.912537 412.818787,334.484558 
	C411.813995,334.942108 410.900879,334.959595 409.646423,334.962280 
z"/>
<path fill="#E7E7E7" opacity="1.000000" stroke="none" 
	d="
M423.730530,338.049438 
	C421.639313,338.822449 419.571625,339.291595 417.501678,340.432800 
	C417.103241,340.039520 417.052460,339.866486 417.012482,339.423157 
	C417.233063,338.878174 417.452484,338.611389 417.875763,338.180542 
	C419.967529,338.055573 421.741425,335.654388 423.730530,338.049438 
z"/>
<path fill="#090A0A" opacity="1.000000" stroke="none" 
	d="
M411.310150,346.781372 
	C411.005005,347.000458 410.620087,346.891693 410.420959,346.873230 
	C410.171112,345.869476 410.120453,344.884186 410.085602,343.528748 
	C410.233368,343.009125 410.365265,342.859619 410.709595,342.920624 
	C411.058655,343.484161 411.195374,343.837158 411.622162,344.152130 
	C411.912231,344.114105 411.988831,344.049683 411.960388,344.008484 
	C412.848694,344.957062 412.360046,345.775299 411.310150,346.781372 
z"/>
<path fill="#9F9F9F" opacity="1.000000" stroke="none" 
	d="
M407.203125,340.960602 
	C406.916931,340.946167 406.952728,340.472412 406.976624,340.236053 
	C407.545441,339.936493 408.237488,339.143188 408.584869,339.910156 
	C408.911957,340.632202 408.147522,340.901489 407.203125,340.960602 
z"/>
<path fill="#E7E7E7" opacity="1.000000" stroke="none" 
	d="
M416.371155,341.956451 
	C415.985901,341.619263 415.932861,341.164825 415.998108,340.367401 
	C416.302399,340.018738 416.488434,340.013062 416.945007,340.078064 
	C417.991577,340.999054 417.000427,341.313995 416.371155,341.956451 
z"/>
<path fill="#646464" opacity="1.000000" stroke="none" 
	d="
M410.890625,342.900696 
	C410.921967,343.131165 410.504608,342.932434 410.303040,343.045532 
	C410.250183,342.834595 410.092285,342.034729 410.890625,342.900696 
z"/>
<path fill="#646464" opacity="1.000000" stroke="none" 
	d="
M417.818054,338.118591 
	C417.883331,338.307343 417.698090,338.607361 417.268036,339.030151 
	C417.204681,338.845215 417.386108,338.537537 417.818054,338.118591 
z"/>
<path fill="#E7E7E7" opacity="1.000000" stroke="none" 
	d="
M407.324890,337.031464 
	C407.186035,336.709869 407.391357,336.378723 407.845703,335.878845 
	C407.952850,336.147400 407.810944,336.584656 407.324890,337.031464 
z"/>
<path fill="#1A1A1A" opacity="1.000000" stroke="none" 
	d="
M412.594086,330.455078 
	C411.278503,330.579376 410.008942,330.345093 408.423279,330.030334 
	C407.405060,329.905243 406.903870,329.490509 406.114838,328.932983 
	C405.805725,328.829437 405.568848,328.622650 405.425659,328.687500 
	C405.023193,328.683960 404.763916,328.615509 404.769989,328.244751 
	C405.042542,327.758087 405.049805,327.573700 404.976074,327.124634 
	C404.821320,326.685944 404.747528,326.511932 404.898407,326.164978 
	C406.775818,327.205566 408.787384,327.795135 409.395508,325.382233 
	C409.943848,323.206421 412.092316,323.325195 412.988098,321.490448 
	C417.473663,323.870178 417.473663,323.870178 412.594086,330.455078 
z"/>
<path fill="#646464" opacity="1.000000" stroke="none" 
	d="
M404.649567,348.006897 
	C404.487152,348.412994 404.001282,348.686188 403.227539,348.965210 
	C402.904877,347.977234 403.627563,347.940887 404.649567,348.006897 
z"/>
<path fill="#838383" opacity="1.000000" stroke="none" 
	d="
M412.687256,346.757111 
	C412.969849,347.691956 412.988556,348.462524 413.000732,349.619141 
	C410.866577,349.984100 412.096283,348.540619 412.014801,347.366333 
	C412.160797,346.913422 412.292084,346.753143 412.687256,346.757111 
z"/>
<path fill="#E7E7E7" opacity="1.000000" stroke="none" 
	d="
M412.969208,346.577393 
	C412.951111,346.921387 412.497772,347.043427 412.263611,347.058594 
	C411.861053,347.029419 411.692596,346.985077 411.264587,346.970581 
	C411.249023,346.192291 411.493042,345.384125 411.834503,344.271637 
	C413.080780,344.351471 412.943207,345.334717 412.969208,346.577393 
z"/>
<path fill="#E7E7E7" opacity="1.000000" stroke="none" 
	d="
M415.926086,342.655640 
	C415.187164,342.696655 415.164642,342.345734 415.839966,341.949463 
	C416.078644,342.030670 415.976471,342.447205 415.926086,342.655640 
z"/>
<path fill="#FFFFFF" opacity="1.000000" stroke="none" 
	d="
M404.828491,325.748993 
	C405.123047,325.992035 404.960205,326.413147 404.927673,326.636536 
	C404.518738,326.920776 404.272064,326.769775 404.047760,326.196838 
	C404.138245,325.826477 404.336060,325.666199 404.828491,325.748993 
z"/>
<path fill="#FFFFFF" opacity="1.000000" stroke="none" 
	d="
M405.927063,329.196564 
	C406.940308,327.492218 407.185303,329.282990 408.003174,329.687378 
	C408.074982,330.711273 408.042847,331.472626 407.997070,332.616241 
	C405.758209,332.743713 406.053589,331.069061 405.927063,329.196564 
z"/>
<path fill="#E7E7E7" opacity="1.000000" stroke="none" 
	d="
M404.738800,327.948334 
	C405.035309,327.942474 405.216705,328.329773 405.249573,328.541077 
	C404.859863,329.483124 404.838531,330.501862 403.489807,330.858032 
	C403.145203,330.490448 403.123596,330.064484 403.068817,329.319977 
	C403.504517,328.652344 403.973389,328.303284 404.738800,327.948334 
z"/>
</svg>