<svg version="1.1" id="Layer_1" xmlns="http://www.w3.org/2000/svg" xmlns:xlink="http://www.w3.org/1999/xlink" x="0px" y="0px"
	 width="100%" viewBox="0 0 500 288" enable-background="new 0 0 500 288" xml:space="preserve">
<path fill="#FFFFFF" opacity="1.000000" stroke="none" 
	d="
M292.000000,289.000000 
	C196.030289,289.000000 100.560562,288.981079 5.090968,289.081543 
	C1.866483,289.084961 0.888359,288.704651 0.893560,285.093262 
	C1.028157,191.623123 1.021853,98.152718 0.909540,4.682508 
	C0.905590,1.394927 1.854105,0.933388 4.815251,0.934715 
	C168.929810,1.008228 333.044403,1.007442 497.158966,0.939736 
	C500.059265,0.938540 501.098907,1.305328 501.094696,4.656733 
	C500.976746,98.293533 500.977661,191.930557 501.096008,285.567352 
	C501.100006,288.736511 500.230743,289.070068 497.434662,289.066589 
	C429.123199,288.981384 360.811584,289.000000 292.000000,289.000000 
z"/>
<path fill="#444241" opacity="1.000000" stroke="none" 
	d="
M256.355042,56.186611 
	C254.320557,50.151779 250.176926,48.072559 244.353027,48.040497 
	C229.428925,47.958336 229.429382,47.875736 229.429260,62.630123 
	C229.429245,64.460159 229.259918,66.309509 229.465958,68.116043 
	C229.847198,71.458565 227.810440,77.101074 230.605026,77.715637 
	C236.368134,78.983055 242.846970,79.547592 248.663010,76.667503 
	C250.784882,75.616760 250.546555,72.964127 251.980484,70.171272 
	C251.980484,76.979881 251.980484,82.816048 251.980484,88.652222 
	C250.605133,86.030548 250.511841,82.640953 247.071350,81.473167 
	C244.020905,80.437790 240.851501,80.455200 237.698273,80.496071 
	C227.991989,80.621864 229.588409,79.204628 229.440979,88.543327 
	C229.372711,92.867790 229.323013,97.197823 229.467804,101.518532 
	C229.566696,104.469589 229.006531,107.111427 226.897766,109.715576 
	C226.495529,110.791214 226.891113,111.627808 226.191788,112.558533 
	C224.589020,112.807877 223.218857,112.865944 221.440155,112.869095 
	C220.662552,112.488159 220.520096,112.076912 220.799011,111.328110 
	C224.006439,109.064201 223.749039,105.929939 223.757248,102.963356 
	C223.797775,88.300385 223.779556,73.637245 223.777740,58.974159 
	C223.776489,48.935249 223.773315,48.935249 214.426910,46.022903 
	C216.063522,46.022903 217.700134,46.022900 219.336746,46.022903 
	C230.167435,46.022919 241.007919,46.293564 251.824387,45.901402 
	C256.754333,45.722660 258.465332,47.347038 257.798279,52.028412 
	C257.658905,53.006672 257.798035,54.024628 257.771118,55.466660 
	C257.452881,56.293903 257.080688,56.474098 256.355042,56.186611 
z"/>
<path fill="#555352" opacity="1.000000" stroke="none" 
	d="
M253.978455,109.042862 
	C242.271454,125.668884 230.760666,141.994278 219.249878,158.319672 
	C218.701355,157.928741 218.152817,157.537796 217.604279,157.146866 
	C239.962769,125.278313 262.321259,93.409760 284.679749,61.541214 
	C285.278961,61.951233 285.878174,62.361256 286.477386,62.771275 
	C275.709808,78.094925 264.942261,93.418579 253.978455,109.042862 
z"/>
<path fill="#3F3D3C" opacity="1.000000" stroke="none" 
	d="
M272.190979,164.552612 
	C267.958618,164.836075 263.956177,164.873093 259.496002,164.857666 
	C258.666962,164.484772 258.522217,164.077454 258.802246,163.333649 
	C262.018433,161.101547 261.777985,157.978134 261.788879,155.024231 
	C261.834747,142.576096 261.808289,130.127701 261.808289,117.428215 
	C265.948364,118.368797 267.635437,120.384438 267.505371,124.672340 
	C267.198364,134.793152 267.371948,144.929947 267.435089,155.059753 
	C267.454773,158.213196 267.398010,161.535141 271.614502,163.000305 
	C272.334778,163.441223 272.474335,163.836899 272.190979,164.552612 
z"/>
<path fill="#464443" opacity="1.000000" stroke="none" 
	d="
M279.807037,135.348389 
	C290.450470,131.914230 294.590088,126.135773 293.967194,115.642242 
	C293.396332,106.025093 288.076508,100.912415 276.371033,98.731171 
	C282.944977,96.262184 293.220093,99.179031 297.553314,104.744301 
	C302.103943,110.588768 301.811310,121.093864 296.917725,127.690994 
	C292.901428,133.105438 287.259338,135.632751 280.450623,136.772232 
	C279.684143,136.483810 279.530853,136.087311 279.807037,135.348389 
z"/>
<path fill="#464443" opacity="1.000000" stroke="none" 
	d="
M323.932983,230.286652 
	C321.711365,231.645844 320.837524,230.152939 319.831116,228.785461 
	C318.014343,226.316757 316.130890,223.897110 313.974915,221.061981 
	C312.689850,224.286423 313.376190,226.788177 313.174011,229.220261 
	C313.103302,230.071182 313.105377,230.909164 311.961884,230.953964 
	C310.872009,230.996689 310.566895,230.290009 310.563721,229.368042 
	C310.549957,225.378113 310.544952,221.388123 310.540802,217.398163 
	C310.539917,216.542877 310.647766,215.618942 311.573822,215.361877 
	C312.649414,215.063309 313.459991,215.707230 314.097626,216.558151 
	C316.168427,219.321732 318.247803,222.078857 321.493469,224.760193 
	C321.493469,222.272766 321.482941,219.785263 321.499298,217.297958 
	C321.504944,216.437302 321.677826,215.513245 322.678131,215.390335 
	C324.228882,215.199768 324.063019,216.495575 324.070892,217.408768 
	C324.106689,221.564590 324.073181,225.720993 323.932983,230.286652 
z"/>
<path fill="#4B4948" opacity="1.000000" stroke="none" 
	d="
M269.890015,230.052063 
	C269.832855,226.654846 269.601471,223.649719 269.906189,220.699951 
	C270.096069,218.861694 268.227295,215.809921 271.480286,215.360245 
	C274.812988,214.899551 278.639069,214.337128 281.274078,217.366776 
	C283.097748,219.463577 283.143951,222.312927 281.196747,224.168839 
	C278.184082,227.040222 282.132782,228.435959 282.059967,230.609070 
	C279.893677,231.811707 279.083130,230.152466 278.296722,228.716965 
	C277.433441,227.141083 276.415649,226.075058 274.421021,226.291092 
	C272.132812,226.538925 272.762756,228.330856 272.467438,229.668045 
	C272.095856,231.350372 271.126587,231.281082 269.890015,230.052063 
z"/>
<path fill="#51504F" opacity="1.000000" stroke="none" 
	d="
M180.849579,222.312698 
	C182.757675,216.684082 186.276596,214.361801 190.828400,215.387924 
	C195.124390,216.356400 197.673737,219.796982 197.250916,224.055786 
	C196.841370,228.180923 193.496460,231.064774 189.096344,231.086349 
	C184.113754,231.110794 181.446091,228.398117 180.849579,222.312698 
z"/>
<path fill="#51504F" opacity="1.000000" stroke="none" 
	d="
M154.467407,226.542831 
	C152.122406,220.042969 156.516876,215.530884 161.501434,215.235138 
	C165.292465,215.010193 168.406128,216.656464 169.789536,220.290482 
	C170.975693,223.406326 170.524139,226.544617 167.834930,228.907913 
	C164.757156,231.612701 161.311111,231.825134 157.721512,230.004196 
	C156.367355,229.317261 155.366852,228.210831 154.467407,226.542831 
z"/>
<path fill="#525050" opacity="1.000000" stroke="none" 
	d="
M363.937561,224.362701 
	C360.501709,223.338547 357.605499,222.222321 358.841675,218.152893 
	C359.689941,215.360489 364.005310,214.299271 367.482239,215.760391 
	C368.423279,216.155869 369.481934,216.393433 369.190796,217.717377 
	C368.876892,219.145004 367.940613,218.818314 366.906006,218.469437 
	C365.983002,218.158203 364.977875,218.037231 363.998993,217.961411 
	C363.179138,217.897888 362.262726,217.971146 361.966431,218.949326 
	C361.609222,220.128662 362.293427,220.794846 363.319519,221.199814 
	C364.549469,221.685257 365.784943,222.157227 367.010101,222.654465 
	C369.104492,223.504456 370.355743,225.072937 369.827881,227.307266 
	C369.152191,230.167175 366.870544,231.094864 364.128326,231.077316 
	C361.745026,231.062042 359.348846,230.737183 358.060791,228.514252 
	C357.534668,227.606216 358.348022,226.596832 359.729431,227.047394 
	C360.975861,227.453918 362.176453,228.047714 363.448486,228.315094 
	C364.586090,228.554230 365.976746,228.468857 366.454590,227.217499 
	C367.148834,225.399490 365.391602,225.145386 363.937561,224.362701 
z"/>
<path fill="#4B4948" opacity="1.000000" stroke="none" 
	d="
M245.870941,216.789688 
	C249.303574,213.966675 252.797607,214.982513 256.047302,216.452606 
	C258.304688,217.473785 258.443085,219.878922 258.039734,222.122131 
	C257.601410,224.559631 255.979584,225.871155 253.595398,226.099579 
	C251.031326,226.345276 247.992462,225.727463 248.379089,229.966019 
	C248.447739,230.718475 247.703995,231.029373 246.971970,230.963379 
	C245.842529,230.861542 245.832199,230.007889 245.832169,229.167862 
	C245.832031,225.185120 245.832596,221.202377 245.870941,216.789688 
z"/>
<path fill="#5D5C5B" opacity="1.000000" stroke="none" 
	d="
M138.917908,217.923660 
	C136.581482,217.720688 135.735352,218.481567 135.919647,220.466553 
	C136.082596,222.221344 137.315674,221.993744 138.442551,222.034561 
	C139.271957,222.064606 140.104477,222.021683 140.932800,222.065002 
	C141.746750,222.107605 142.715485,222.095123 142.808701,223.197266 
	C142.926544,224.590256 141.828766,224.875854 140.835510,224.747910 
	C137.147812,224.272964 135.165100,225.398483 135.834579,229.504089 
	C135.990768,230.461945 135.275772,231.001297 134.306732,231.011810 
	C133.209412,231.023727 132.972717,230.256165 132.970718,229.370483 
	C132.961365,225.219131 132.955841,221.067688 132.976837,216.916412 
	C132.983017,215.694687 133.708023,215.156372 134.885605,215.151596 
	C136.380112,215.145538 137.889389,215.003311 139.364975,215.166626 
	C140.845520,215.330475 143.448425,214.230499 143.441925,216.534332 
	C143.435440,218.841797 140.815994,217.575958 138.917908,217.923660 
z"/>
<path fill="#5D5C5B" opacity="1.000000" stroke="none" 
	d="
M212.304504,230.472687 
	C212.037552,227.584671 212.029236,225.092117 211.979568,222.600418 
	C211.933182,220.273361 212.824692,217.294617 208.612198,217.831924 
	C207.709839,217.947021 207.038483,217.335754 207.198486,216.287994 
	C207.315323,215.522873 207.920258,215.208786 208.626740,215.202148 
	C211.783005,215.172394 214.939636,215.158493 218.095932,215.175293 
	C218.977859,215.179977 219.804169,215.496231 219.794495,216.537109 
	C219.784882,217.570526 218.927673,217.987534 218.080048,217.874130 
	C214.660461,217.416595 214.884445,219.633484 214.952408,221.882782 
	C215.022659,224.207397 214.932205,226.536453 214.969803,228.862625 
	C214.997818,230.596146 214.290009,231.331619 212.304504,230.472687 
z"/>
<path fill="#5D5C5B" opacity="1.000000" stroke="none" 
	d="
M346.493805,217.840118 
	C343.785736,217.607147 342.733887,218.399094 342.923859,220.900665 
	C343.124878,223.548035 342.970581,226.223007 342.955841,228.885834 
	C342.950165,229.907532 342.890564,230.954315 341.504517,231.008453 
	C340.067688,231.064560 340.008057,230.004303 339.998596,228.980774 
	C339.978607,226.817322 339.962952,224.653305 339.991333,222.490112 
	C340.023682,220.023636 340.621765,217.201141 336.493500,217.821030 
	C335.793335,217.926147 335.246948,217.412033 335.175873,216.644714 
	C335.104828,215.878403 335.547760,215.276611 336.256775,215.264664 
	C339.746918,215.205841 343.259125,215.021866 346.720367,215.344772 
	C348.264771,215.488876 348.244720,216.828781 346.493805,217.840118 
z"/>
<path fill="#5D5C5B" opacity="1.000000" stroke="none" 
	d="
M294.758942,219.446106 
	C295.079437,217.722656 293.903595,215.515091 296.004364,215.351685 
	C298.219116,215.179413 297.560974,217.401459 297.599121,218.726700 
	C297.689026,221.850479 297.675964,224.979782 297.601654,228.104416 
	C297.573547,229.285080 298.102539,231.084702 295.980011,230.965622 
	C294.220764,230.866913 294.813446,229.284317 294.786102,228.270187 
	C294.710785,225.474930 294.759308,222.676300 294.758942,219.446106 
z"/>
<path fill="#676665" opacity="1.000000" stroke="none" 
	d="
M288.599792,262.176697 
	C290.205017,260.030609 288.683777,258.998840 287.514191,257.875977 
	C286.036530,256.457275 285.231964,255.015259 287.478577,253.040604 
	C288.317657,254.689621 288.748871,256.510437 290.350555,257.596588 
	C291.452881,258.344116 292.032166,259.578033 291.331726,261.062347 
	C290.675507,262.452972 289.656372,262.953583 288.167999,262.731934 
	C287.542206,262.638763 286.893402,262.700500 286.255035,262.691803 
	C286.495239,262.792694 286.771973,263.023651 286.968353,262.968475 
	C287.435730,262.837250 287.865143,262.570801 288.599792,262.176697 
z"/>
<path fill="#676665" opacity="1.000000" stroke="none" 
	d="
M156.211700,262.790039 
	C160.156128,261.077301 160.243790,261.000641 157.719589,258.114105 
	C156.278976,256.466705 155.042755,255.069656 157.313782,253.212509 
	C161.938080,262.830872 161.938080,262.830872 156.211700,262.790039 
z"/>
<path fill="#5D5C5B" opacity="1.000000" stroke="none" 
	d="
M237.580307,258.988892 
	C237.904816,260.148041 237.904816,261.280151 237.904816,262.412231 
	C237.642441,262.543915 237.380051,262.675568 237.117676,262.807251 
	C235.181900,259.556610 233.246109,256.305969 230.654343,251.953781 
	C235.244431,253.480148 235.239410,257.074463 237.580307,258.988892 
z"/>
<path fill="#676665" opacity="1.000000" stroke="none" 
	d="
M188.685318,257.269714 
	C186.632294,257.751740 184.445068,258.636993 185.025421,261.856750 
	C185.168564,262.650848 184.642883,262.983948 183.857498,262.946625 
	C182.960403,262.903961 182.805450,262.343140 182.918472,261.624847 
	C183.353317,258.861328 183.763718,256.092773 184.275436,253.343262 
	C184.464844,252.325577 185.441559,252.106720 186.215210,252.390839 
	C187.608154,252.902435 186.201813,253.635162 186.104080,254.173370 
	C185.745941,256.145874 186.125122,257.399200 188.685318,257.269714 
z"/>
<path fill="#777575" opacity="1.000000" stroke="none" 
	d="
M315.815735,253.384140 
	C317.673309,256.153290 317.393127,258.832886 316.979065,261.575104 
	C316.818787,262.636597 316.380463,263.030151 315.411682,262.824463 
	C314.277283,262.583588 314.893829,261.814270 314.977966,261.194061 
	C315.318817,258.682526 314.567139,256.406708 313.774261,254.039062 
	C312.952454,251.584839 314.431763,252.200821 315.815735,253.384140 
z"/>
<path fill="#777575" opacity="1.000000" stroke="none" 
	d="
M202.095108,252.712067 
	C198.825836,252.860397 200.051651,255.575333 199.481934,256.967316 
	C198.737610,258.785950 199.293427,261.044189 197.966080,263.193298 
	C196.174667,257.187195 197.400192,253.129944 201.365387,252.176208 
	C201.920731,252.225952 202.098251,252.339386 202.095108,252.712067 
z"/>
<path fill="#676665" opacity="1.000000" stroke="none" 
	d="
M343.585999,254.861481 
	C343.205994,257.297455 342.641479,259.410950 342.702759,261.506134 
	C342.737244,262.684052 342.442047,262.909058 341.555878,262.998718 
	C340.852783,263.069885 339.985931,262.745483 340.281311,262.040894 
	C341.377686,259.425812 340.069672,255.893936 343.275208,254.097626 
	C343.364105,254.047821 343.487213,254.059082 343.594391,254.041840 
	C343.617340,254.205002 343.640289,254.368179 343.585999,254.861481 
z"/>
<path fill="#9E9D9D" opacity="1.000000" stroke="none" 
	d="
M249.626755,256.324829 
	C249.416397,254.623901 248.509171,253.515396 247.196548,252.061737 
	C248.875031,252.061737 250.121170,251.960571 251.342712,252.090530 
	C252.535583,252.217422 253.961487,251.445389 255.147827,253.171371 
	C254.028732,254.127365 251.280014,252.991882 251.219543,255.781433 
	C250.693787,256.341644 250.332825,256.492767 249.626755,256.324829 
z"/>
<path fill="#9E9D9D" opacity="1.000000" stroke="none" 
	d="
M301.626770,256.324829 
	C301.112976,254.761215 301.077271,253.258453 298.342468,252.461884 
	C302.075378,252.461884 304.489868,252.461884 307.978577,252.461884 
	C306.028564,254.127182 303.280090,252.992065 303.219574,255.781433 
	C302.693512,256.340973 302.332764,256.492615 301.626770,256.324829 
z"/>
<path fill="#9E9D9D" opacity="1.000000" stroke="none" 
	d="
M171.626755,256.324829 
	C171.416397,254.623901 170.509171,253.515396 169.557877,252.461899 
	C172.079391,252.461899 174.496689,252.461899 177.978333,252.461899 
	C176.028732,254.127365 173.280014,252.991882 173.219543,255.781433 
	C172.693787,256.341644 172.332825,256.492767 171.626755,256.324829 
z"/>
<path fill="#777575" opacity="1.000000" stroke="none" 
	d="
M279.595184,135.036240 
	C280.032654,135.466248 280.030853,135.841751 280.050903,136.499420 
	C277.260223,137.157242 274.435852,137.639496 271.799286,135.308044 
	C274.251495,135.199280 276.703674,135.090515 279.595184,135.036240 
z"/>
<path fill="#5D5C5B" opacity="1.000000" stroke="none" 
	d="
M272.385498,164.894623 
	C271.968597,164.428253 271.976166,164.057465 271.978149,163.408554 
	C274.431030,163.320007 276.889496,163.509567 279.445740,163.706665 
	C277.387848,165.307327 275.084198,165.072281 272.385498,164.894623 
z"/>
<path fill="#5D5C5B" opacity="1.000000" stroke="none" 
	d="
M249.255890,256.555267 
	C249.713348,256.128601 250.071091,256.086853 250.698639,256.021729 
	C250.986786,256.160217 251.034790,256.324982 251.019028,256.483429 
	C250.793045,258.753632 251.024200,262.724731 249.207321,262.549103 
	C247.227631,262.357697 249.523880,258.946320 249.255890,256.555267 
z"/>
<path fill="#5D5C5B" opacity="1.000000" stroke="none" 
	d="
M301.255920,256.555298 
	C301.713348,256.128632 302.071106,256.086853 302.698669,256.021729 
	C302.986755,256.160217 303.034698,256.325012 303.018921,256.483398 
	C302.792938,258.753632 303.024261,262.724670 301.207275,262.549103 
	C299.227692,262.357788 301.523804,258.946320 301.255920,256.555298 
z"/>
<path fill="#5D5C5B" opacity="1.000000" stroke="none" 
	d="
M171.255890,256.555267 
	C171.713348,256.128601 172.071091,256.086853 172.698639,256.021729 
	C172.986771,256.160217 173.034775,256.324982 173.018982,256.483398 
	C172.793030,258.753632 173.024200,262.724731 171.207321,262.549103 
	C169.227631,262.357697 171.523880,258.946320 171.255890,256.555267 
z"/>
<path fill="#51504F" opacity="1.000000" stroke="none" 
	d="
M327.022095,259.268799 
	C327.437225,257.724152 327.863464,256.556641 328.450500,254.948792 
	C330.494934,257.793396 327.975891,260.363464 328.682190,262.796844 
	C328.209290,262.811401 327.564148,263.031250 327.293732,262.804382 
	C326.208710,261.894226 327.337769,260.694397 327.022095,259.268799 
z"/>
<path fill="#51504F" opacity="1.000000" stroke="none" 
	d="
M268.156464,260.215515 
	C267.994080,257.724884 268.260559,255.402466 266.680481,252.316391 
	C270.804352,254.465454 270.256866,256.891052 269.207062,259.724243 
	C268.817688,260.159882 268.628479,260.274689 268.156464,260.215515 
z"/>
<path fill="#5D5C5B" opacity="1.000000" stroke="none" 
	d="
M220.600906,111.057106 
	C221.022476,111.452690 221.019089,111.841667 221.023666,112.522415 
	C218.794693,113.062263 216.554688,113.400627 214.213379,111.979874 
	C216.200912,111.670082 218.188431,111.360291 220.600906,111.057106 
z"/>
<path fill="#5D5C5B" opacity="1.000000" stroke="none" 
	d="
M258.605225,163.061951 
	C259.028961,163.457581 259.027496,163.842575 259.032166,164.516403 
	C256.799408,165.072403 254.558762,165.394150 252.213348,163.976913 
	C254.202240,163.668381 256.191162,163.359863 258.605225,163.061951 
z"/>
<path fill="#51504F" opacity="1.000000" stroke="none" 
	d="
M261.945831,255.757004 
	C262.260162,257.868164 262.260162,259.815002 262.260162,262.243713 
	C259.468506,260.541626 259.898224,258.578278 260.787109,256.212006 
	C261.198303,255.782410 261.414917,255.687561 261.945831,255.757004 
z"/>
<path fill="#ECECEC" opacity="1.000000" stroke="none" 
	d="
M267.568115,260.180176 
	C268.062561,260.039551 268.251465,260.037537 268.723633,260.040314 
	C268.617493,263.462250 265.857941,263.028503 262.999084,264.041077 
	C264.023346,261.417297 266.384796,261.758728 267.568115,260.180176 
z"/>
<path fill="#9E9D9D" opacity="1.000000" stroke="none" 
	d="
M237.960464,259.014709 
	C238.483978,256.766022 237.092545,254.045029 240.241241,251.089783 
	C239.520889,254.421814 239.055054,256.576599 238.247009,258.873657 
	C237.904816,259.015961 237.963425,258.981628 237.960464,259.014709 
z"/>
<path fill="#ECECEC" opacity="1.000000" stroke="none" 
	d="
M262.526062,255.793625 
	C262.047241,255.909271 261.834351,255.897217 261.301575,255.881226 
	C261.097107,254.154968 262.120300,252.516418 263.664032,253.245483 
	C265.273987,254.005798 263.260010,254.864410 262.526062,255.793625 
z"/>
<path fill="#777575" opacity="1.000000" stroke="none" 
	d="
M256.063568,56.349068 
	C256.468994,55.945724 256.829620,55.934036 257.461853,55.915688 
	C258.105896,57.208996 258.242279,58.503159 257.643280,59.809845 
	C255.611328,59.558964 256.374054,57.851883 256.063568,56.349068 
z"/>
<path fill="#5D5C5B" opacity="1.000000" stroke="none" 
	d="
M226.262177,112.843155 
	C226.050797,111.966957 226.142410,111.184120 226.461365,110.211113 
	C224.848007,110.916565 230.893265,112.146271 226.262177,112.843155 
z"/>
<path fill="#676665" opacity="1.000000" stroke="none" 
	d="
M290.260956,252.619949 
	C290.523834,252.446091 290.834290,252.441376 291.140198,252.476440 
	C291.167633,252.479584 291.165527,252.740265 291.177155,252.881348 
	C290.887207,252.854156 290.597260,252.826981 290.260956,252.619949 
z"/>
<path fill="#777575" opacity="1.000000" stroke="none" 
	d="
M319.217102,254.473999 
	C319.006866,254.416168 318.884979,254.429459 318.763092,254.442749 
	C318.943878,254.476868 319.124634,254.510986 319.217102,254.473999 
z"/>
<path fill="#676665" opacity="1.000000" stroke="none" 
	d="
M189.001389,257.006592 
	C189.004120,257.003510 189.180481,256.918701 189.180481,256.918701 
	C189.180481,256.918701 188.952316,256.874481 188.983658,256.937653 
	C189.014999,257.000824 188.998657,257.009674 189.001389,257.006592 
z"/>
<path fill="#ECECEC" opacity="1.000000" stroke="none" 
	d="
M202.128784,252.903381 
	C201.914444,252.971329 201.881027,252.531525 201.812119,252.322021 
	C202.164825,252.169556 202.751480,252.089615 202.128784,252.903381 
z"/>
<path fill="#ECECEC" opacity="1.000000" stroke="none" 
	d="
M278.971191,218.674820 
	C280.557220,220.936218 279.958557,222.491028 278.044495,223.479263 
	C276.537994,224.257065 274.685699,224.394928 273.239563,223.653305 
	C271.652374,222.839371 272.089325,220.811157 272.502197,219.612167 
	C273.741669,216.012695 276.506226,218.288162 278.971191,218.674820 
z"/>
<path fill="#F7F7F7" opacity="1.000000" stroke="none" 
	d="
M186.788849,228.102875 
	C184.009598,226.447250 183.137436,224.299438 183.878082,221.548676 
	C184.401443,219.605026 185.722031,218.397919 187.668961,218.001251 
	C189.945007,217.537537 192.028885,217.959000 193.450836,219.970428 
	C194.828888,221.919739 194.956589,224.096146 193.643982,226.058578 
	C192.112732,228.347839 189.921967,229.310226 186.788849,228.102875 
z"/>
<path fill="#F7F7F7" opacity="1.000000" stroke="none" 
	d="
M166.389801,219.872345 
	C168.164536,225.691956 165.376755,229.683105 160.828018,228.484207 
	C158.566254,227.888062 157.040619,226.451447 156.700424,224.021530 
	C156.399933,221.875198 156.972321,219.975601 158.854187,218.814728 
	C161.389008,217.251038 163.888336,217.375565 166.389801,219.872345 
z"/>
<path fill="#ECECEC" opacity="1.000000" stroke="none" 
	d="
M255.496552,221.625275 
	C251.758926,224.738373 248.768692,224.778061 248.474945,222.029694 
	C248.324280,220.619934 247.419403,218.243866 249.860245,217.937988 
	C252.338882,217.627365 255.519043,217.050842 255.496552,221.625275 
z"/>
</svg>